<?xml version="1.0" encoding="UTF-8" standalone="no"?>
<!DOCTYPE svg PUBLIC "-//W3C//DTD SVG 1.1//EN"
 "http://www.w3.org/Graphics/SVG/1.1/DTD/svg11.dtd">
<!-- Generated by graphviz version 13.0.0 (20250608.1624)
 -->
<!-- Title: G Pages: 1 -->
<svg width="316pt" height="571pt"
 viewBox="0.00 0.00 316.00 571.00" xmlns="http://www.w3.org/2000/svg" xmlns:xlink="http://www.w3.org/1999/xlink">
<g id="graph0" class="graph" transform="scale(1 1) rotate(0) translate(21.6 549.35)">
<title>G</title>
<polygon fill="#111111" stroke="none" points="-21.6,21.6 -21.6,-549.35 294.85,-549.35 294.85,21.6 -21.6,21.6"/>
<!-- __archive/backup&#45;files/setupTests.js -->
<g id="node1" class="node">
<title>__archive/backup&#45;files/setupTests.js</title>
<path fill="none" stroke="#cfffac" d="M244.71,-23.75C244.71,-23.75 28.54,-23.75 28.54,-23.75 24.58,-23.75 20.62,-19.79 20.62,-15.83 20.62,-15.83 20.62,-7.92 20.62,-7.92 20.62,-3.96 24.58,0 28.54,0 28.54,0 244.71,0 244.71,0 248.67,0 252.62,-3.96 252.62,-7.92 252.62,-7.92 252.62,-15.83 252.62,-15.83 252.62,-19.79 248.67,-23.75 244.71,-23.75"/>
<text xml:space="preserve" text-anchor="middle" x="136.62" y="-6.45" font-family="Arial" font-size="14.00" fill="#cfffac">__archive/backup&#45;files/setupTests.js</text>
</g>
<!-- __archive/legacy_js/AnalyticsService.js -->
<g id="node2" class="node">
<title>__archive/legacy_js/AnalyticsService.js</title>
<path fill="none" stroke="#cfffac" d="M254.08,-65.75C254.08,-65.75 19.17,-65.75 19.17,-65.75 15.21,-65.75 11.25,-61.79 11.25,-57.83 11.25,-57.83 11.25,-49.92 11.25,-49.92 11.25,-45.96 15.21,-42 19.17,-42 19.17,-42 254.08,-42 254.08,-42 258.04,-42 262,-45.96 262,-49.92 262,-49.92 262,-57.83 262,-57.83 262,-61.79 258.04,-65.75 254.08,-65.75"/>
<text xml:space="preserve" text-anchor="middle" x="136.62" y="-48.45" font-family="Arial" font-size="14.00" fill="#cfffac">__archive/legacy_js/AnalyticsService.js</text>
</g>
<!-- __archive/legacy_js/api.js -->
<g id="node3" class="node">
<title>__archive/legacy_js/api.js</title>
<path fill="none" stroke="#cfffac" d="M213.58,-107.75C213.58,-107.75 59.67,-107.75 59.67,-107.75 55.71,-107.75 51.75,-103.79 51.75,-99.83 51.75,-99.83 51.75,-91.92 51.75,-91.92 51.75,-87.96 55.71,-84 59.67,-84 59.67,-84 213.58,-84 213.58,-84 217.54,-84 221.5,-87.96 221.5,-91.92 221.5,-91.92 221.5,-99.83 221.5,-99.83 221.5,-103.79 217.54,-107.75 213.58,-107.75"/>
<text xml:space="preserve" text-anchor="middle" x="136.62" y="-90.45" font-family="Arial" font-size="14.00" fill="#cfffac">__archive/legacy_js/api.js</text>
</g>
<!-- __archive/legacy_js/errorLogger.js -->
<g id="node4" class="node">
<title>__archive/legacy_js/errorLogger.js</title>
<path fill="none" stroke="#cfffac" d="M239.46,-149.75C239.46,-149.75 33.79,-149.75 33.79,-149.75 29.83,-149.75 25.88,-145.79 25.88,-141.83 25.88,-141.83 25.88,-133.92 25.88,-133.92 25.88,-129.96 29.83,-126 33.79,-126 33.79,-126 239.46,-126 239.46,-126 243.42,-126 247.38,-129.96 247.38,-133.92 247.38,-133.92 247.38,-141.83 247.38,-141.83 247.38,-145.79 243.42,-149.75 239.46,-149.75"/>
<text xml:space="preserve" text-anchor="middle" x="136.62" y="-132.45" font-family="Arial" font-size="14.00" fill="#cfffac">__archive/legacy_js/errorLogger.js</text>
</g>
<!-- __archive/legacy_js/performanceMonitor.js -->
<g id="node5" class="node">
<title>__archive/legacy_js/performanceMonitor.js</title>
<path fill="none" stroke="#cfffac" d="M265.33,-191.75C265.33,-191.75 7.92,-191.75 7.92,-191.75 3.96,-191.75 0,-187.79 0,-183.83 0,-183.83 0,-175.92 0,-175.92 0,-171.96 3.96,-168 7.92,-168 7.92,-168 265.33,-168 265.33,-168 269.29,-168 273.25,-171.96 273.25,-175.92 273.25,-175.92 273.25,-183.83 273.25,-183.83 273.25,-187.79 269.29,-191.75 265.33,-191.75"/>
<text xml:space="preserve" text-anchor="middle" x="136.62" y="-174.45" font-family="Arial" font-size="14.00" fill="#cfffac">__archive/legacy_js/performanceMonitor.js</text>
</g>
<!-- __archive/legacy_js/performanceService.js -->
<g id="node6" class="node">
<title>__archive/legacy_js/performanceService.js</title>
<path fill="none" stroke="#cfffac" d="M265.33,-233.75C265.33,-233.75 7.92,-233.75 7.92,-233.75 3.96,-233.75 0,-229.79 0,-225.83 0,-225.83 0,-217.92 0,-217.92 0,-213.96 3.96,-210 7.92,-210 7.92,-210 265.33,-210 265.33,-210 269.29,-210 273.25,-213.96 273.25,-217.92 273.25,-217.92 273.25,-225.83 273.25,-225.83 273.25,-229.79 269.29,-233.75 265.33,-233.75"/>
<text xml:space="preserve" text-anchor="middle" x="136.62" y="-216.45" font-family="Arial" font-size="14.00" fill="#cfffac">__archive/legacy_js/performanceService.js</text>
</g>
<!-- api/predictions.js -->
<g id="node7" class="node">
<title>api/predictions.js</title>
<path fill="none" stroke="#cfffac" d="M186.96,-275.75C186.96,-275.75 86.29,-275.75 86.29,-275.75 82.33,-275.75 78.38,-271.79 78.38,-267.83 78.38,-267.83 78.38,-259.92 78.38,-259.92 78.38,-255.96 82.33,-252 86.29,-252 86.29,-252 186.96,-252 186.96,-252 190.92,-252 194.88,-255.96 194.88,-259.92 194.88,-259.92 194.88,-267.83 194.88,-267.83 194.88,-271.79 190.92,-275.75 186.96,-275.75"/>
<text xml:space="preserve" text-anchor="middle" x="136.62" y="-258.45" font-family="Arial" font-size="14.00" fill="#cfffac">api/predictions.js</text>
</g>
<!-- hooks/useConfidenceStats.js -->
<g id="node8" class="node">
<title>hooks/useConfidenceStats.js</title>
<path fill="none" stroke="#cfffac" d="M223.71,-317.75C223.71,-317.75 49.54,-317.75 49.54,-317.75 45.58,-317.75 41.62,-313.79 41.62,-309.83 41.62,-309.83 41.62,-301.92 41.62,-301.92 41.62,-297.96 45.58,-294 49.54,-294 49.54,-294 223.71,-294 223.71,-294 227.67,-294 231.62,-297.96 231.62,-301.92 231.62,-301.92 231.62,-309.83 231.62,-309.83 231.62,-313.79 227.67,-317.75 223.71,-317.75"/>
<text xml:space="preserve" text-anchor="middle" x="136.62" y="-300.45" font-family="Arial" font-size="14.00" fill="#cfffac">hooks/useConfidenceStats.js</text>
</g>
<!-- jest.setup&#45;env.js -->
<g id="node9" class="node">
<title>jest.setup&#45;env.js</title>
<path fill="none" stroke="#cfffac" d="M185.08,-359.75C185.08,-359.75 88.17,-359.75 88.17,-359.75 84.21,-359.75 80.25,-355.79 80.25,-351.83 80.25,-351.83 80.25,-343.92 80.25,-343.92 80.25,-339.96 84.21,-336 88.17,-336 88.17,-336 185.08,-336 185.08,-336 189.04,-336 193,-339.96 193,-343.92 193,-343.92 193,-351.83 193,-351.83 193,-355.79 189.04,-359.75 185.08,-359.75"/>
<text xml:space="preserve" text-anchor="middle" x="136.62" y="-342.45" font-family="Arial" font-size="14.00" fill="#cfffac">jest.setup&#45;env.js</text>
</g>
<!-- jest.setup&#45;files.js -->
<g id="node10" class="node">
<title>jest.setup&#45;files.js</title>
<path fill="none" stroke="#cfffac" d="M186.58,-401.75C186.58,-401.75 86.67,-401.75 86.67,-401.75 82.71,-401.75 78.75,-397.79 78.75,-393.83 78.75,-393.83 78.75,-385.92 78.75,-385.92 78.75,-381.96 82.71,-378 86.67,-378 86.67,-378 186.58,-378 186.58,-378 190.54,-378 194.5,-381.96 194.5,-385.92 194.5,-385.92 194.5,-393.83 194.5,-393.83 194.5,-397.79 190.54,-401.75 186.58,-401.75"/>
<text xml:space="preserve" text-anchor="middle" x="136.62" y="-384.45" font-family="Arial" font-size="14.00" fill="#cfffac">jest.setup&#45;files.js</text>
</g>
<!-- test/__mocks__/fileMock.js -->
<g id="node11" class="node">
<title>test/__mocks__/fileMock.js</title>
<path fill="none" stroke="#cfffac" d="M218.08,-443.75C218.08,-443.75 55.17,-443.75 55.17,-443.75 51.21,-443.75 47.25,-439.79 47.25,-435.83 47.25,-435.83 47.25,-427.92 47.25,-427.92 47.25,-423.96 51.21,-420 55.17,-420 55.17,-420 218.08,-420 218.08,-420 222.04,-420 226,-423.96 226,-427.92 226,-427.92 226,-435.83 226,-435.83 226,-439.79 222.04,-443.75 218.08,-443.75"/>
<text xml:space="preserve" text-anchor="middle" x="136.62" y="-426.45" font-family="Arial" font-size="14.00" fill="#cfffac">test/__mocks__/fileMock.js</text>
</g>
<!-- test/jest.setup&#45;env.js -->
<g id="node12" class="node">
<title>test/jest.setup&#45;env.js</title>
<path fill="none" stroke="#cfffac" d="M197.83,-485.75C197.83,-485.75 75.42,-485.75 75.42,-485.75 71.46,-485.75 67.5,-481.79 67.5,-477.83 67.5,-477.83 67.5,-469.92 67.5,-469.92 67.5,-465.96 71.46,-462 75.42,-462 75.42,-462 197.83,-462 197.83,-462 201.79,-462 205.75,-465.96 205.75,-469.92 205.75,-469.92 205.75,-477.83 205.75,-477.83 205.75,-481.79 201.79,-485.75 197.83,-485.75"/>
<text xml:space="preserve" text-anchor="middle" x="136.62" y="-468.45" font-family="Arial" font-size="14.00" fill="#cfffac">test/jest.setup&#45;env.js</text>
</g>
<!-- test/jest.setup&#45;files.js -->
<g id="node13" class="node">
<title>test/jest.setup&#45;files.js</title>
<path fill="none" stroke="#cfffac" d="M199.33,-527.75C199.33,-527.75 73.92,-527.75 73.92,-527.75 69.96,-527.75 66,-523.79 66,-519.83 66,-519.83 66,-511.92 66,-511.92 66,-507.96 69.96,-504 73.92,-504 73.92,-504 199.33,-504 199.33,-504 203.29,-504 207.25,-507.96 207.25,-511.92 207.25,-511.92 207.25,-519.83 207.25,-519.83 207.25,-523.79 203.29,-527.75 199.33,-527.75"/>
<text xml:space="preserve" text-anchor="middle" x="136.62" y="-510.45" font-family="Arial" font-size="14.00" fill="#cfffac">test/jest.setup&#45;files.js</text>
</g>
</g>
</svg>
